# xmcd CD database file
#
# Track frame offsets:
#	210
#	12232
#	25064
#	37043
#	50357
#	62604
#	75766
#	89510
#	101099
#	113461
#	126539
#	138495
#	152339
#	167108
#	181028
#	195884
#	208640
#	221878
#	235518
#	249673
#	263190
#	276892
#	287398
#	302256
#
# Disc length: 4173 seconds
#
# Revision: 0
# Processed by: cddbd v1.4PL0 Copyright (c) Steve Scherf et al.
# Submitted via: CDex 1.50Beta7
#
DISCID=39104b18
DTITLE=Sammy Price - Sammy Price and The Blues Singers, Vol. 2 ~ 1939 - 1949
DYEAR=2001
DGENRE=Blues
TTITLE0=Do Your Duty (1939) - w-Lether McGraw
TTITLE1=Low Down Dirty Groundhog (1939) - w-Lether McGraw
TTITLE2=Death Letter Blues (1939) - w-James Carter
TTITLE3=Death Cell Blues (1939) - w-James Carter
TTITLE4=Let Me Rock Your Home (1941-42) - w-Nora Lee King
TTITLE5=Why Don't You Do Right¿_take A  (1941-42) - w-Nora Lee King
TTITLE6=Love Me (1941-42) - w-Nora Lee King
TTITLE7=Yump Da Da Da (1941-42) - w-Nora Lee King
TTITLE8=Cannon Ball (1941-42) - w-Nora Lee King
TTITLE9=Deep Sea Diver (1941-42) - w-Nora Lee King
TTITLE10=If I'm a Fool (1942-44) - w-Wee Bea Booze
TTITLE11=I Love to Georgia Brown So Low (1942-44) - w-Wee Bea Booze
TTITLE12=Uncle Sam, Come and Get Him (1942-44) - w-Wee Bea Booze
TTITLE13=If I Didn"t Love You (1942-44) - w-Wee Bea Booze
TTITLE14=See See Rider Blues_take B (1942-44) - w-Wee Bea Booze
TTITLE15=Let's Be Friends_take A (1942-44) - w-Wee Bea Booze
TTITLE16=Catchin' as Catch Can (1942-44) - w-Wee Bea Booze
TTITLE17=War Rationin' Papa (1942-44) - w-Wee Bea Booze
TTITLE18=Mr. Freddie Blues (1942-44) - w-Wee Bea Booze
TTITLE19=Gulf Coast Blues (1942-44) - w-Wee Bea Booze
TTITLE20=Working Man (Doing the Best I Can) 1949 - w-Herman Ray
TTITLE21=Trouble Blues (1949) - w-Herman Ray
TTITLE22=President's Blues (1949) - w-Herman Ray
TTITLE23=I'm a Little Piece of Leather (1949) - w-Herman Ray
EXTD=YEAR: 2001
EXTT0=
EXTT1=
EXTT2=
EXTT3=
EXTT4=
EXTT5=
EXTT6=
EXTT7=
EXTT8=
EXTT9=
EXTT10=
EXTT11=
EXTT12=
EXTT13=
EXTT14=
EXTT15=
EXTT16=
EXTT17=
EXTT18=
EXTT19=
EXTT20=
EXTT21=
EXTT22=
EXTT23=
PLAYORDER=
